<svg xmlns="http://www.w3.org/2000/svg" xmlns:xlink="http://www.w3.org/1999/xlink" width="200" zoomAndPan="magnify" viewBox="0 0 150 149.999998" height="200" preserveAspectRatio="xMidYMid meet" version="1.0"><defs><clipPath id="id1"><path d="M 49.636719 64 L 57 64 L 57 87 L 49.636719 87 Z M 49.636719 64 " clip-rule="nonzero"/></clipPath><clipPath id="id2"><path d="M 93 64 L 100.636719 64 L 100.636719 87 L 93 87 Z M 93 64 " clip-rule="nonzero"/></clipPath></defs><path fill="#a4c639" d="M 64.800781 45.625 L 67.503906 50.429688 C 62.476562 52.925781 59 57.710938 59 63.304688 L 91.460938 63.304688 C 91.460938 57.734375 87.984375 52.929688 82.957031 50.429688 L 85.664062 45.625 C 85.664062 45.625 85.859375 45.433594 85.472656 45.238281 C 85.277344 45.046875 85.085938 45.433594 85.085938 45.433594 L 82.183594 50.238281 C 79.910156 49.222656 77.527344 48.707031 75.035156 48.699219 C 72.542969 48.707031 70.160156 49.222656 67.886719 50.238281 L 64.992188 45.433594 C 64.992188 45.433594 64.800781 45.242188 64.601562 45.242188 C 64.625 45.394531 64.6875 45.519531 64.796875 45.628906 Z M 67.523438 55.039062 C 68.277344 55.039062 69.070312 55.785156 69.070312 56.574219 C 69.070312 57.363281 68.316406 58.109375 67.523438 58.109375 C 67.320312 58.113281 67.121094 58.078125 66.929688 58 C 66.738281 57.921875 66.570312 57.8125 66.425781 57.667969 C 66.28125 57.523438 66.167969 57.355469 66.089844 57.164062 C 66.011719 56.976562 65.976562 56.777344 65.980469 56.574219 C 65.976562 56.371094 66.011719 56.171875 66.089844 55.980469 C 66.167969 55.792969 66.28125 55.625 66.425781 55.480469 C 66.570312 55.335938 66.738281 55.226562 66.929688 55.148438 C 67.121094 55.070312 67.320312 55.035156 67.523438 55.039062 Z M 82.980469 55.039062 C 83.734375 55.039062 84.527344 55.785156 84.527344 56.574219 C 84.527344 57.363281 83.773438 58.109375 82.980469 58.109375 C 82.777344 58.113281 82.578125 58.078125 82.386719 58 C 82.195312 57.921875 82.027344 57.8125 81.882812 57.667969 C 81.738281 57.523438 81.625 57.355469 81.546875 57.164062 C 81.46875 56.976562 81.433594 56.777344 81.4375 56.574219 C 81.433594 56.371094 81.46875 56.171875 81.546875 55.980469 C 81.625 55.792969 81.738281 55.625 81.882812 55.480469 C 82.027344 55.335938 82.195312 55.226562 82.386719 55.148438 C 82.578125 55.070312 82.777344 55.035156 82.980469 55.039062 Z M 58.808594 65.222656 L 58.808594 89.824219 C 58.808594 90.976562 60.351562 92.703125 61.511719 92.703125 L 65.378906 92.703125 L 65.378906 101.160156 C 65.378906 103.269531 66.921875 105 68.855469 105 C 70.789062 105 72.332031 103.273438 72.332031 101.160156 L 72.332031 92.699219 L 77.933594 92.699219 L 77.933594 101.15625 C 77.933594 103.265625 79.476562 105 81.410156 105 C 83.34375 105 84.886719 103.269531 84.886719 101.15625 L 84.886719 92.699219 L 88.75 92.699219 C 89.910156 92.699219 91.457031 91.164062 91.457031 89.820312 L 91.457031 65.222656 Z M 58.808594 65.222656 " fill-opacity="1" fill-rule="nonzero"/><g clip-path="url(#id1)"><path fill="#a4c639" d="M 53.394531 64.648438 C 55.328125 64.648438 56.871094 66.378906 56.871094 68.492188 L 56.871094 83.09375 C 56.871094 85.207031 55.328125 86.9375 53.394531 86.9375 C 51.464844 86.9375 49.917969 85.210938 49.917969 83.09375 L 49.917969 68.492188 C 49.917969 66.378906 51.464844 64.648438 53.394531 64.648438 Z M 53.394531 64.648438 " fill-opacity="1" fill-rule="nonzero"/></g><g clip-path="url(#id2)"><path fill="#a4c639" d="M 97.066406 64.648438 C 98.996094 64.648438 100.542969 66.378906 100.542969 68.492188 L 100.542969 83.09375 C 100.542969 85.207031 98.996094 86.9375 97.066406 86.9375 C 95.132812 86.9375 93.585938 85.210938 93.585938 83.09375 L 93.585938 68.492188 C 93.585938 66.378906 95.132812 64.648438 97.066406 64.648438 Z M 97.066406 64.648438 " fill-opacity="1" fill-rule="nonzero"/></g></svg>