<svg xmlns="http://www.w3.org/2000/svg" xmlns:xlink="http://www.w3.org/1999/xlink" width="300" zoomAndPan="magnify" viewBox="0 0 224.87999 225" height="300" preserveAspectRatio="xMidYMid meet" version="1.0"><defs><clipPath id="id1"><path d="M 46.660156 14 L 178.589844 14 L 178.589844 131 L 46.660156 131 Z M 46.660156 14 " clip-rule="nonzero"/></clipPath><clipPath id="id2"><path d="M 23 152 L 56.96875 152 L 56.96875 214 L 23 214 Z M 23 152 " clip-rule="nonzero"/></clipPath><clipPath id="id3"><path d="M 23 152 L 56.96875 152 L 56.96875 159 L 23 159 Z M 23 152 " clip-rule="nonzero"/></clipPath><clipPath id="id4"><path d="M 23 207 L 56.96875 207 L 56.96875 214 L 23 214 Z M 23 207 " clip-rule="nonzero"/></clipPath><clipPath id="id5"><path d="M 22.488281 151.6875 L 56.96875 151.6875 L 56.96875 214.652344 L 22.488281 214.652344 Z M 22.488281 151.6875 " clip-rule="nonzero"/></clipPath><clipPath id="id6"><path d="M 23 207 L 56.96875 207 L 56.96875 209 L 23 209 Z M 23 207 " clip-rule="nonzero"/></clipPath><clipPath id="id7"><path d="M 23 158 L 56.96875 158 L 56.96875 159 L 23 159 Z M 23 158 " clip-rule="nonzero"/></clipPath><clipPath id="id8"><path d="M 168.136719 151.6875 L 202.617188 151.6875 L 202.617188 214.652344 L 168.136719 214.652344 Z M 168.136719 151.6875 " clip-rule="nonzero"/></clipPath><clipPath id="id9"><path d="M 176 151.6875 L 195 151.6875 L 195 212 L 176 212 Z M 176 151.6875 " clip-rule="nonzero"/></clipPath><clipPath id="id10"><path d="M 93 162.632812 L 131.960938 162.632812 L 131.960938 183.621094 L 93 183.621094 Z M 93 162.632812 " clip-rule="nonzero"/></clipPath><clipPath id="id11"><path d="M 93 191.765625 L 131.890625 191.765625 L 131.890625 212.753906 L 93 212.753906 Z M 93 191.765625 " clip-rule="nonzero"/></clipPath></defs><g clip-path="url(#id1)"><path fill="#00d8ff" d="M 155.042969 51.992188 C 153.679688 51.527344 152.265625 51.082031 150.804688 50.664062 C 151.046875 49.691406 151.269531 48.734375 151.464844 47.789062 C 154.667969 32.300781 152.574219 19.820312 145.410156 15.714844 C 138.539062 11.773438 127.308594 15.882812 115.964844 25.699219 C 114.875 26.644531 113.777344 27.644531 112.6875 28.691406 C 111.957031 28 111.230469 27.328125 110.507812 26.6875 C 98.617188 16.1875 86.699219 11.765625 79.542969 15.882812 C 72.683594 19.835938 70.652344 31.566406 73.539062 46.246094 C 73.816406 47.664062 74.144531 49.113281 74.511719 50.582031 C 72.824219 51.058594 71.199219 51.566406 69.640625 52.109375 C 55.703125 56.941406 46.800781 64.515625 46.800781 72.375 C 46.800781 80.488281 56.355469 88.632812 70.875 93.566406 C 72.019531 93.957031 73.207031 94.324219 74.433594 94.671875 C 74.035156 96.261719 73.691406 97.824219 73.398438 99.347656 C 70.644531 113.773438 72.796875 125.226562 79.640625 129.148438 C 86.707031 133.207031 98.570312 129.035156 110.121094 118.996094 C 111.035156 118.203125 111.953125 117.359375 112.867188 116.480469 C 114.0625 117.613281 115.25 118.695312 116.425781 119.707031 C 127.617188 129.28125 138.667969 133.148438 145.503906 129.214844 C 152.5625 125.148438 154.863281 112.839844 151.878906 97.875 C 151.652344 96.730469 151.386719 95.5625 151.09375 94.375 C 151.925781 94.128906 152.742188 93.875 153.539062 93.613281 C 168.632812 88.636719 178.453125 80.601562 178.453125 72.375 C 178.453125 64.488281 169.261719 56.863281 155.042969 51.992188 Z M 151.773438 88.304688 C 151.050781 88.539062 150.3125 88.769531 149.558594 88.988281 C 147.894531 83.746094 145.648438 78.164062 142.890625 72.402344 C 145.519531 66.773438 147.679688 61.265625 149.296875 56.054688 C 150.644531 56.441406 151.953125 56.851562 153.210938 57.28125 C 165.394531 61.453125 172.824219 67.625 172.824219 72.375 C 172.824219 77.433594 164.804688 84.007812 151.773438 88.304688 Z M 146.363281 98.960938 C 147.683594 105.578125 147.867188 111.5625 146.992188 116.242188 C 146.210938 120.449219 144.632812 123.25 142.683594 124.371094 C 138.535156 126.761719 129.664062 123.65625 120.097656 115.464844 C 118.996094 114.523438 117.890625 113.523438 116.785156 112.464844 C 120.492188 108.425781 124.203125 103.738281 127.824219 98.523438 C 134.183594 97.964844 140.195312 97.046875 145.652344 95.792969 C 145.917969 96.871094 146.15625 97.925781 146.363281 98.960938 Z M 91.683594 123.957031 C 87.632812 125.382812 84.402344 125.425781 82.453125 124.304688 C 78.296875 121.921875 76.570312 112.722656 78.925781 100.390625 C 79.195312 98.980469 79.519531 97.527344 79.886719 96.042969 C 85.28125 97.230469 91.25 98.085938 97.628906 98.597656 C 101.273438 103.695312 105.089844 108.382812 108.929688 112.484375 C 108.09375 113.292969 107.253906 114.058594 106.421875 114.78125 C 101.3125 119.226562 96.195312 122.375 91.683594 123.957031 Z M 72.695312 88.273438 C 66.273438 86.089844 60.972656 83.253906 57.339844 80.15625 C 54.074219 77.378906 52.425781 74.617188 52.425781 72.375 C 52.425781 67.609375 59.574219 61.523438 71.492188 57.390625 C 72.9375 56.886719 74.453125 56.414062 76.023438 55.972656 C 77.671875 61.300781 79.832031 66.875 82.441406 72.507812 C 79.800781 78.226562 77.605469 83.890625 75.945312 89.285156 C 74.824219 88.964844 73.738281 88.625 72.695312 88.273438 Z M 79.058594 45.171875 C 76.585938 32.59375 78.230469 23.105469 82.363281 20.726562 C 86.769531 18.191406 96.507812 21.804688 106.769531 30.871094 C 107.429688 31.453125 108.085938 32.058594 108.75 32.683594 C 104.925781 36.769531 101.144531 41.421875 97.53125 46.488281 C 91.339844 47.0625 85.414062 47.976562 79.964844 49.207031 C 79.621094 47.835938 79.320312 46.488281 79.058594 45.171875 Z M 135.84375 59.121094 C 134.542969 56.882812 133.207031 54.695312 131.84375 52.570312 C 136.046875 53.097656 140.066406 53.800781 143.847656 54.65625 C 142.714844 58.273438 141.300781 62.054688 139.636719 65.933594 C 138.441406 63.679688 137.175781 61.40625 135.84375 59.121094 Z M 112.6875 36.683594 C 115.285156 39.480469 117.882812 42.597656 120.4375 45.984375 C 117.863281 45.863281 115.253906 45.800781 112.625 45.800781 C 110.023438 45.800781 107.4375 45.863281 104.875 45.984375 C 107.433594 42.628906 110.054688 39.511719 112.6875 36.683594 Z M 89.382812 59.15625 C 88.082031 61.402344 86.839844 63.664062 85.664062 65.929688 C 84.027344 62.066406 82.628906 58.265625 81.484375 54.597656 C 85.238281 53.761719 89.246094 53.078125 93.417969 52.558594 C 92.035156 54.707031 90.6875 56.90625 89.382812 59.15625 Z M 93.539062 92.585938 C 89.226562 92.109375 85.160156 91.460938 81.40625 90.648438 C 82.566406 86.914062 84 83.035156 85.671875 79.085938 C 86.851562 81.351562 88.09375 83.613281 89.40625 85.863281 C 90.738281 88.15625 92.121094 90.394531 93.539062 92.585938 Z M 112.84375 108.457031 C 110.179688 105.597656 107.519531 102.433594 104.921875 99.03125 C 107.441406 99.128906 110.015625 99.179688 112.625 99.179688 C 115.3125 99.179688 117.964844 99.117188 120.570312 99.003906 C 118.011719 102.46875 115.417969 105.640625 112.84375 108.457031 Z M 139.6875 78.886719 C 141.445312 82.875 142.933594 86.734375 144.109375 90.40625 C 140.292969 91.269531 136.167969 91.964844 131.828125 92.488281 C 133.195312 90.335938 134.542969 88.109375 135.871094 85.824219 C 137.214844 83.511719 138.484375 81.195312 139.6875 78.886719 Z M 130.996094 83.03125 C 128.9375 86.582031 126.824219 89.964844 124.679688 93.164062 C 120.777344 93.441406 116.742188 93.582031 112.625 93.582031 C 108.527344 93.582031 104.542969 93.460938 100.707031 93.210938 C 98.472656 89.972656 96.316406 86.574219 94.273438 83.0625 C 92.234375 79.558594 90.355469 76.023438 88.65625 72.507812 C 90.355469 68.988281 92.226562 65.449219 94.253906 61.953125 C 96.289062 58.445312 98.425781 55.0625 100.640625 51.84375 C 104.550781 51.550781 108.570312 51.394531 112.625 51.394531 C 116.703125 51.394531 120.722656 51.550781 124.632812 51.847656 C 126.816406 55.042969 128.9375 58.414062 130.980469 61.921875 C 133.042969 65.46875 134.941406 68.984375 136.652344 72.429688 C 134.945312 75.933594 133.054688 79.484375 130.996094 83.03125 Z M 142.597656 20.558594 C 147.011719 23.085938 148.722656 33.285156 145.949219 46.660156 C 145.777344 47.511719 145.574219 48.382812 145.359375 49.261719 C 139.898438 48.007812 133.96875 47.074219 127.761719 46.496094 C 124.140625 41.371094 120.390625 36.714844 116.628906 32.679688 C 117.640625 31.714844 118.652344 30.789062 119.65625 29.917969 C 129.375 21.507812 138.464844 18.183594 142.597656 20.558594 Z M 112.625 60.679688 C 119.117188 60.679688 124.382812 65.914062 124.382812 72.375 C 124.382812 78.828125 119.117188 84.066406 112.625 84.066406 C 106.136719 84.066406 100.871094 78.828125 100.871094 72.375 C 100.871094 65.914062 106.136719 60.679688 112.625 60.679688 Z M 112.625 60.679688 " fill-opacity="1" fill-rule="nonzero"/></g><g clip-path="url(#id2)"><path fill="#fefdef" d="M 23.394531 208.332031 L 23.394531 158.003906 C 23.394531 155.027344 25.832031 152.613281 28.839844 152.613281 L 50.617188 152.613281 C 53.625 152.613281 56.0625 155.027344 56.0625 158.003906 L 56.0625 208.332031 C 56.0625 211.3125 53.625 213.726562 50.617188 213.726562 L 28.839844 213.726562 C 25.832031 213.726562 23.394531 211.3125 23.394531 208.332031 Z M 23.394531 208.332031 " fill-opacity="1" fill-rule="nonzero"/></g><g clip-path="url(#id3)"><path fill="#b3b2c3" d="M 56.0625 158.453125 L 56.0625 158.003906 C 56.0625 155.027344 53.625 152.613281 50.617188 152.613281 L 28.839844 152.613281 C 25.832031 152.613281 23.394531 155.027344 23.394531 158.003906 L 23.394531 158.453125 Z M 56.0625 158.453125 " fill-opacity="1" fill-rule="nonzero"/></g><g clip-path="url(#id4)"><path fill="#b3b2c3" d="M 23.394531 207.882812 L 23.394531 208.332031 C 23.394531 211.3125 25.832031 213.726562 28.839844 213.726562 L 50.617188 213.726562 C 53.625 213.726562 56.0625 211.3125 56.0625 208.332031 L 56.0625 207.882812 Z M 23.394531 207.882812 " fill-opacity="1" fill-rule="nonzero"/></g><path fill="#a1d3a2" d="M 44.71875 180.683594 L 44.71875 188.113281 C 44.71875 188.609375 44.3125 189.011719 43.8125 189.011719 L 35.644531 189.011719 C 35.144531 189.011719 34.738281 188.609375 34.738281 188.113281 L 34.738281 180.472656 C 34.738281 177.582031 37.242188 175.273438 40.21875 175.554688 C 42.8125 175.796875 44.71875 178.105469 44.71875 180.683594 Z M 44.71875 180.683594 " fill-opacity="1" fill-rule="nonzero"/><g clip-path="url(#id5)"><path fill="#1f212b" d="M 50.617188 214.625 L 28.839844 214.625 C 25.335938 214.625 22.488281 211.800781 22.488281 208.332031 L 22.488281 158.003906 C 22.488281 154.535156 25.335938 151.714844 28.839844 151.714844 L 50.617188 151.714844 C 54.121094 151.714844 56.96875 154.535156 56.96875 158.003906 L 56.96875 208.332031 C 56.96875 211.800781 54.121094 214.625 50.617188 214.625 Z M 28.839844 153.511719 C 26.339844 153.511719 24.304688 155.527344 24.304688 158.003906 L 24.304688 208.332031 C 24.304688 210.8125 26.339844 212.828125 28.839844 212.828125 L 50.617188 212.828125 C 53.121094 212.828125 55.15625 210.8125 55.15625 208.332031 L 55.15625 158.003906 C 55.15625 155.527344 53.121094 153.511719 50.617188 153.511719 Z M 28.839844 153.511719 " fill-opacity="1" fill-rule="nonzero"/></g><g clip-path="url(#id6)"><path fill="#1f212b" d="M 55.609375 208.332031 L 23.847656 208.332031 C 23.597656 208.332031 23.394531 208.132812 23.394531 207.882812 C 23.394531 207.636719 23.597656 207.433594 23.847656 207.433594 L 55.609375 207.433594 C 55.859375 207.433594 56.0625 207.636719 56.0625 207.882812 C 56.0625 208.132812 55.859375 208.332031 55.609375 208.332031 Z M 55.609375 208.332031 " fill-opacity="1" fill-rule="nonzero"/></g><g clip-path="url(#id7)"><path fill="#1f212b" d="M 55.609375 158.902344 L 23.847656 158.902344 C 23.597656 158.902344 23.394531 158.703125 23.394531 158.453125 C 23.394531 158.207031 23.597656 158.003906 23.847656 158.003906 L 55.609375 158.003906 C 55.859375 158.003906 56.0625 158.207031 56.0625 158.453125 C 56.0625 158.703125 55.859375 158.902344 55.609375 158.902344 Z M 55.609375 158.902344 " fill-opacity="1" fill-rule="nonzero"/></g><path fill="#1f212b" d="M 32.46875 186.765625 C 31.96875 186.765625 31.5625 186.363281 31.5625 185.863281 L 31.5625 181.371094 C 31.5625 180.875 31.96875 180.472656 32.46875 180.472656 C 32.96875 180.472656 33.375 180.875 33.375 181.371094 L 33.375 185.863281 C 33.375 186.363281 32.96875 186.765625 32.46875 186.765625 Z M 32.46875 186.765625 " fill-opacity="1" fill-rule="nonzero"/><path fill="#1f212b" d="M 46.988281 186.765625 C 46.488281 186.765625 46.082031 186.363281 46.082031 185.863281 L 46.082031 181.371094 C 46.082031 180.875 46.488281 180.472656 46.988281 180.472656 C 47.488281 180.472656 47.894531 180.875 47.894531 181.371094 L 47.894531 185.863281 C 47.894531 186.363281 47.488281 186.765625 46.988281 186.765625 Z M 46.988281 186.765625 " fill-opacity="1" fill-rule="nonzero"/><path fill="#1f212b" d="M 37.007812 192.15625 C 36.503906 192.15625 36.097656 191.753906 36.097656 191.257812 L 36.097656 189.460938 C 36.097656 188.964844 36.503906 188.5625 37.007812 188.5625 C 37.507812 188.5625 37.914062 188.964844 37.914062 189.460938 L 37.914062 191.257812 C 37.914062 191.753906 37.507812 192.15625 37.007812 192.15625 Z M 37.007812 192.15625 " fill-opacity="1" fill-rule="nonzero"/><path fill="#1f212b" d="M 42.449219 192.15625 C 41.949219 192.15625 41.542969 191.753906 41.542969 191.257812 L 41.542969 189.460938 C 41.542969 188.964844 41.949219 188.5625 42.449219 188.5625 C 42.953125 188.5625 43.359375 188.964844 43.359375 189.460938 L 43.359375 191.257812 C 43.359375 191.753906 42.953125 192.15625 42.449219 192.15625 Z M 42.449219 192.15625 " fill-opacity="1" fill-rule="nonzero"/><path fill="#1f212b" d="M 36.988281 176.789062 C 36.855469 176.789062 36.722656 176.730469 36.632812 176.617188 L 35.289062 174.90625 C 35.132812 174.710938 35.171875 174.429688 35.367188 174.277344 C 35.566406 174.125 35.851562 174.160156 36.003906 174.355469 L 37.347656 176.066406 C 37.5 176.261719 37.464844 176.542969 37.269531 176.695312 C 37.183594 176.757812 37.085938 176.789062 36.988281 176.789062 Z M 36.988281 176.789062 " fill-opacity="1" fill-rule="nonzero"/><path fill="#1f212b" d="M 42.601562 176.878906 C 42.515625 176.878906 42.425781 176.855469 42.347656 176.804688 C 42.140625 176.667969 42.085938 176.386719 42.222656 176.179688 L 43.433594 174.382812 C 43.570312 174.175781 43.855469 174.117188 44.0625 174.257812 C 44.269531 174.394531 44.328125 174.675781 44.1875 174.878906 L 42.976562 176.679688 C 42.890625 176.808594 42.746094 176.878906 42.601562 176.878906 Z M 42.601562 176.878906 " fill-opacity="1" fill-rule="nonzero"/><path fill="#1f212b" d="M 40.183594 181.371094 L 34.738281 181.371094 C 34.488281 181.371094 34.285156 181.171875 34.285156 180.921875 C 34.285156 180.675781 34.488281 180.472656 34.738281 180.472656 L 40.183594 180.472656 C 40.433594 180.472656 40.636719 180.675781 40.636719 180.921875 C 40.636719 181.171875 40.433594 181.371094 40.183594 181.371094 Z M 40.183594 181.371094 " fill-opacity="1" fill-rule="nonzero"/><path fill="#1f212b" d="M 44.71875 181.371094 L 41.996094 181.371094 C 41.746094 181.371094 41.542969 181.171875 41.542969 180.921875 C 41.542969 180.675781 41.746094 180.472656 41.996094 180.472656 L 44.71875 180.472656 C 44.96875 180.472656 45.171875 180.675781 45.171875 180.921875 C 45.171875 181.171875 44.96875 181.371094 44.71875 181.371094 Z M 44.71875 181.371094 " fill-opacity="1" fill-rule="nonzero"/><path fill="#1f212b" d="M 37.914062 178.226562 C 37.914062 178.351562 37.871094 178.457031 37.78125 178.542969 C 37.691406 178.632812 37.585938 178.675781 37.460938 178.675781 C 37.335938 178.675781 37.226562 178.632812 37.140625 178.542969 C 37.050781 178.457031 37.007812 178.351562 37.007812 178.226562 C 37.007812 178.101562 37.050781 177.996094 37.140625 177.90625 C 37.226562 177.820312 37.335938 177.777344 37.460938 177.777344 C 37.585938 177.777344 37.691406 177.820312 37.78125 177.90625 C 37.871094 177.996094 37.914062 178.101562 37.914062 178.226562 Z M 37.914062 178.226562 " fill-opacity="1" fill-rule="nonzero"/><path fill="#1f212b" d="M 42.449219 178.226562 C 42.449219 178.351562 42.40625 178.457031 42.316406 178.542969 C 42.230469 178.632812 42.121094 178.675781 41.996094 178.675781 C 41.871094 178.675781 41.765625 178.632812 41.675781 178.542969 C 41.589844 178.457031 41.542969 178.351562 41.542969 178.226562 C 41.542969 178.101562 41.589844 177.996094 41.675781 177.90625 C 41.765625 177.820312 41.871094 177.777344 41.996094 177.777344 C 42.121094 177.777344 42.230469 177.820312 42.316406 177.90625 C 42.40625 177.996094 42.449219 178.101562 42.449219 178.226562 Z M 42.449219 178.226562 " fill-opacity="1" fill-rule="nonzero"/><path fill="#1f212b" d="M 44.265625 155.757812 C 44.265625 155.882812 44.222656 155.988281 44.132812 156.074219 C 44.042969 156.164062 43.9375 156.207031 43.8125 156.207031 C 43.6875 156.207031 43.578125 156.164062 43.492188 156.074219 C 43.402344 155.988281 43.359375 155.882812 43.359375 155.757812 C 43.359375 155.632812 43.402344 155.527344 43.492188 155.441406 C 43.578125 155.351562 43.6875 155.308594 43.8125 155.308594 C 43.9375 155.308594 44.042969 155.351562 44.132812 155.441406 C 44.222656 155.527344 44.265625 155.632812 44.265625 155.757812 Z M 44.265625 155.757812 " fill-opacity="1" fill-rule="nonzero"/><path fill="#1f212b" d="M 41.996094 156.207031 L 37.460938 156.207031 C 37.210938 156.207031 37.007812 156.003906 37.007812 155.757812 C 37.007812 155.507812 37.210938 155.308594 37.460938 155.308594 L 41.996094 155.308594 C 42.246094 155.308594 42.449219 155.507812 42.449219 155.757812 C 42.449219 156.003906 42.246094 156.207031 41.996094 156.207031 Z M 41.996094 156.207031 " fill-opacity="1" fill-rule="nonzero"/><path fill="#1f212b" d="M 45.171875 180.472656 C 45.171875 177.5 42.730469 175.082031 39.730469 175.082031 C 36.726562 175.082031 34.285156 177.5 34.285156 180.472656 C 34.285156 180.554688 34.285156 188.113281 34.285156 188.113281 C 34.285156 188.855469 34.894531 189.460938 35.644531 189.460938 L 43.8125 189.460938 C 44.5625 189.460938 45.171875 188.855469 45.171875 188.113281 C 45.171875 188.113281 45.171875 180.554688 45.171875 180.472656 Z M 44.265625 188.113281 C 44.265625 188.359375 44.0625 188.5625 43.8125 188.5625 L 35.644531 188.5625 C 35.394531 188.5625 35.191406 188.359375 35.191406 188.113281 C 35.191406 188.113281 35.191406 180.554688 35.191406 180.472656 C 35.191406 177.996094 37.226562 175.980469 39.730469 175.980469 C 42.230469 175.980469 44.265625 177.996094 44.265625 180.472656 C 44.265625 180.554688 44.265625 188.113281 44.265625 188.113281 Z M 44.265625 188.113281 " fill-opacity="1" fill-rule="nonzero"/><path fill="#fefdef" d="M 169.042969 208.332031 L 169.042969 158.003906 C 169.042969 155.027344 171.480469 152.613281 174.488281 152.613281 L 196.265625 152.613281 C 199.273438 152.613281 201.710938 155.027344 201.710938 158.003906 L 201.710938 208.332031 C 201.710938 211.3125 199.273438 213.726562 196.265625 213.726562 L 174.488281 213.726562 C 171.480469 213.726562 169.042969 211.3125 169.042969 208.332031 Z M 169.042969 208.332031 " fill-opacity="1" fill-rule="nonzero"/><path fill="#b3b2c3" d="M 179.929688 152.613281 L 190.820312 152.613281 L 190.820312 155.308594 L 179.929688 155.308594 Z M 179.929688 152.613281 " fill-opacity="1" fill-rule="nonzero"/><g clip-path="url(#id8)"><path fill="#1f212b" d="M 196.265625 214.625 L 174.488281 214.625 C 170.984375 214.625 168.136719 211.800781 168.136719 208.332031 L 168.136719 158.003906 C 168.136719 154.535156 170.984375 151.714844 174.488281 151.714844 L 196.265625 151.714844 C 199.765625 151.714844 202.617188 154.535156 202.617188 158.003906 L 202.617188 208.332031 C 202.617188 211.800781 199.765625 214.625 196.265625 214.625 Z M 174.488281 153.511719 C 171.984375 153.511719 169.949219 155.527344 169.949219 158.003906 L 169.949219 208.332031 C 169.949219 210.8125 171.984375 212.828125 174.488281 212.828125 L 196.265625 212.828125 C 198.765625 212.828125 200.800781 210.8125 200.800781 208.332031 L 200.800781 158.003906 C 200.800781 155.527344 198.765625 153.511719 196.265625 153.511719 Z M 174.488281 153.511719 " fill-opacity="1" fill-rule="nonzero"/></g><g clip-path="url(#id9)"><path fill="#1f212b" d="M 193.996094 211.03125 L 176.753906 211.03125 C 176.503906 211.03125 176.300781 210.828125 176.300781 210.582031 C 176.300781 210.332031 176.503906 210.132812 176.753906 210.132812 L 193.996094 210.132812 C 194.246094 210.132812 194.449219 210.332031 194.449219 210.582031 C 194.449219 210.828125 194.246094 211.03125 193.996094 211.03125 Z M 176.300781 151.714844 L 176.300781 153.511719 C 176.300781 155 177.519531 156.207031 179.023438 156.207031 L 191.726562 156.207031 C 193.230469 156.207031 194.449219 155 194.449219 153.511719 L 194.449219 151.714844 Z M 187.644531 154.410156 C 187.484375 154.410156 183.265625 154.410156 183.105469 154.410156 C 182.855469 154.410156 182.652344 154.207031 182.652344 153.960938 C 182.652344 153.710938 182.855469 153.511719 183.105469 153.511719 C 183.265625 153.511719 187.484375 153.511719 187.644531 153.511719 C 187.894531 153.511719 188.097656 153.710938 188.097656 153.960938 C 188.097656 154.207031 187.894531 154.410156 187.644531 154.410156 Z M 189.460938 154.410156 C 189.207031 154.410156 189.003906 154.207031 189.003906 153.960938 C 189.003906 153.710938 189.207031 153.511719 189.460938 153.511719 C 189.710938 153.511719 189.914062 153.710938 189.914062 153.960938 C 189.914062 154.207031 189.710938 154.410156 189.460938 154.410156 Z M 189.460938 154.410156 " fill-opacity="1" fill-rule="nonzero"/></g><path fill="#b3b2c3" d="M 190.898438 186.265625 C 191.035156 186.03125 191.164062 185.816406 191.332031 185.542969 C 190.125 185.085938 189.457031 184.121094 189.457031 182.832031 C 189.457031 182.828125 189.460938 182.824219 189.460938 182.820312 L 189.914062 182.808594 C 189.917969 182.546875 189.964844 182.308594 190.082031 182.003906 C 190.277344 181.511719 190.671875 181.003906 191.234375 180.628906 L 191.324219 180.550781 L 191.046875 180.246094 C 190.386719 179.546875 189.339844 179.125 188.25 179.125 C 187.585938 179.125 187.164062 179.359375 186.789062 179.5625 C 186.433594 179.761719 186.09375 179.949219 185.589844 179.949219 C 185.121094 179.949219 184.722656 179.746094 184.335938 179.550781 C 183.917969 179.339844 183.488281 179.125 182.941406 179.125 C 181.875 179.125 180.800781 179.714844 180.074219 180.703125 C 179.648438 181.285156 179.421875 182.089844 179.421875 183.035156 C 179.417969 184.429688 179.882812 185.910156 180.726562 187.210938 C 181.011719 187.65625 181.886719 189 183.136719 189 C 183.589844 188.996094 183.832031 188.902344 184.089844 188.808594 C 184.414062 188.6875 184.746094 188.5625 185.488281 188.5625 C 186.152344 188.5625 186.527344 188.683594 186.886719 188.800781 C 187.195312 188.902344 187.488281 189 187.933594 189 C 189.011719 189 190 187.6875 190.375 187.125 C 190.589844 186.796875 190.734375 186.550781 190.898438 186.265625 Z M 185.59375 175.90625 C 186.101562 175.210938 186.914062 174.746094 187.625 174.628906 C 187.726562 175.558594 187.421875 176.484375 187.015625 177.066406 C 186.507812 177.761719 185.796875 178.226562 184.984375 178.226562 C 184.78125 177.414062 185.085938 176.601562 185.59375 175.90625 Z M 185.59375 175.90625 " fill-opacity="1" fill-rule="nonzero"/><path fill="#1f212b" d="M 183.160156 189.449219 C 181.667969 189.449219 180.703125 187.949219 180.386719 187.453125 C 179.785156 186.515625 179.378906 185.523438 179.171875 184.492188 C 179.074219 184.003906 179.023438 183.511719 179.023438 183.035156 C 179.027344 181.996094 179.28125 181.097656 179.757812 180.441406 C 180.5625 179.335938 181.761719 178.675781 182.964844 178.675781 C 183.617188 178.675781 184.113281 178.929688 184.554688 179.152344 C 184.917969 179.339844 185.234375 179.5 185.585938 179.5 C 185.96875 179.5 186.226562 179.355469 186.554688 179.171875 C 186.953125 178.949219 187.445312 178.675781 188.222656 178.675781 C 189.425781 178.675781 190.585938 179.148438 191.328125 179.941406 C 191.496094 180.125 191.484375 180.410156 191.300781 180.578125 C 191.117188 180.746094 190.828125 180.734375 190.660156 180.554688 C 190.089844 179.941406 189.179688 179.574219 188.222656 179.574219 C 187.683594 179.574219 187.367188 179.75 187 179.957031 C 186.628906 180.164062 186.207031 180.398438 185.585938 180.398438 C 185.015625 180.398438 184.550781 180.160156 184.140625 179.953125 C 183.757812 179.757812 183.394531 179.574219 182.964844 179.574219 C 182.054688 179.574219 181.128906 180.09375 180.492188 180.96875 C 180.128906 181.472656 179.933594 182.1875 179.929688 183.035156 C 179.929688 183.453125 179.972656 183.882812 180.058594 184.316406 C 180.246094 185.234375 180.609375 186.128906 181.152344 186.972656 C 181.839844 188.039062 182.472656 188.570312 183.171875 188.550781 C 183.519531 188.546875 183.695312 188.480469 183.941406 188.386719 C 184.261719 188.265625 184.667969 188.109375 185.488281 188.109375 C 186.222656 188.109375 186.644531 188.25 187.019531 188.375 C 187.3125 188.472656 187.542969 188.546875 187.910156 188.546875 C 188.496094 188.546875 189.257812 187.921875 189.949219 186.875 C 190.15625 186.558594 190.296875 186.316406 190.457031 186.039062 C 190.511719 185.945312 190.566406 185.84375 190.628906 185.738281 C 189.84375 185.300781 189.320312 184.609375 189.105469 183.714844 C 189.039062 183.4375 189.003906 183.136719 189.003906 182.828125 L 189.007812 182.695312 C 189.019531 182.449219 189.234375 182.246094 189.484375 182.269531 C 189.734375 182.28125 189.925781 182.492188 189.914062 182.742188 C 189.914062 183.066406 189.9375 183.296875 189.988281 183.507812 C 190.179688 184.292969 190.652344 184.824219 191.4375 185.125 C 191.5625 185.175781 191.660156 185.273438 191.703125 185.398438 C 191.746094 185.523438 191.730469 185.664062 191.664062 185.777344 C 191.488281 186.0625 191.359375 186.285156 191.242188 186.488281 C 191.074219 186.78125 190.925781 187.035156 190.707031 187.367188 C 190.195312 188.144531 189.152344 189.449219 187.910156 189.449219 C 187.394531 189.449219 187.054688 189.335938 186.730469 189.226562 C 186.390625 189.113281 186.074219 189.011719 185.488281 189.011719 C 184.835938 189.011719 184.558594 189.113281 184.265625 189.226562 C 183.996094 189.328125 183.695312 189.441406 183.183594 189.449219 C 183.175781 189.449219 183.167969 189.449219 183.160156 189.449219 Z M 184.984375 178.675781 C 184.777344 178.675781 184.59375 178.535156 184.546875 178.332031 C 184.332031 177.476562 184.566406 176.546875 185.226562 175.644531 C 185.777344 174.890625 186.667969 174.332031 187.550781 174.1875 C 187.675781 174.167969 187.800781 174.199219 187.898438 174.273438 C 188 174.347656 188.0625 174.460938 188.074219 174.582031 C 188.195312 175.703125 187.800781 176.730469 187.390625 177.320312 C 186.75 178.195312 185.898438 178.675781 184.984375 178.675781 Z M 185.960938 176.167969 C 185.675781 176.5625 185.371094 177.125 185.375 177.730469 C 185.847656 177.617188 186.289062 177.296875 186.648438 176.804688 C 186.886719 176.464844 187.132812 175.882812 187.183594 175.222656 C 186.710938 175.417969 186.261719 175.757812 185.960938 176.167969 Z M 185.960938 176.167969 " fill-opacity="1" fill-rule="nonzero"/><g clip-path="url(#id10)"><path fill="#5c9eb5" d="M 93.105469 162.632812 L 93.105469 167.898438 L 99.769531 173.136719 L 93.105469 178.359375 L 93.105469 183.621094 L 106.453125 173.117188 Z M 105.796875 162.632812 L 105.796875 167.898438 L 112.460938 173.136719 L 105.796875 178.359375 L 105.796875 183.621094 L 119.144531 173.117188 Z M 118.488281 162.632812 L 118.488281 167.898438 L 125.152344 173.136719 L 118.488281 178.359375 L 118.488281 183.621094 L 131.839844 173.117188 Z M 118.488281 162.632812 " fill-opacity="1" fill-rule="nonzero"/></g><g clip-path="url(#id11)"><path fill="#5c9eb5" d="M 131.769531 212.753906 L 131.769531 207.488281 L 125.105469 202.246094 L 131.769531 197.027344 L 131.769531 191.765625 L 118.417969 202.269531 Z M 119.074219 212.753906 L 119.074219 207.488281 L 112.410156 202.246094 L 119.074219 197.027344 L 119.074219 191.765625 L 105.726562 202.269531 Z M 106.382812 212.753906 L 106.382812 207.488281 L 99.71875 202.246094 L 106.382812 197.027344 L 106.382812 191.765625 L 93.035156 202.269531 Z M 106.382812 212.753906 " fill-opacity="1" fill-rule="nonzero"/></g></svg>