<svg xmlns="http://www.w3.org/2000/svg" xmlns:xlink="http://www.w3.org/1999/xlink" width="200" zoomAndPan="magnify" viewBox="0 0 150 149.999998" height="200" preserveAspectRatio="xMidYMid meet" version="1.0"><path fill="#e6e9ed" d="M 14.886719 29.492188 L 14.886719 130.058594 L 16.820312 131.992188 L 132.835938 131.992188 L 134.769531 130.058594 L 134.769531 29.492188 Z M 14.886719 29.492188 " fill-opacity="1" fill-rule="nonzero"/><path fill="#ffffff" d="M 36.15625 75.898438 C 36.15625 74.835938 37.027344 73.964844 38.089844 73.964844 L 111.566406 73.964844 C 112.632812 73.964844 113.5 74.835938 113.5 75.898438 L 113.5 83.632812 C 113.5 84.695312 112.632812 85.566406 111.566406 85.566406 L 38.089844 85.566406 C 37.027344 85.566406 36.15625 84.695312 36.15625 83.632812 Z M 36.15625 75.898438 " fill-opacity="1" fill-rule="nonzero"/><path fill="#ffffff" d="M 111.566406 91.367188 C 112.632812 91.367188 113.5 92.238281 113.5 93.300781 L 113.5 101.035156 C 113.5 102.097656 112.632812 102.96875 111.566406 102.96875 L 38.089844 102.96875 C 37.027344 102.96875 36.15625 102.097656 36.15625 101.035156 L 36.15625 93.300781 C 36.15625 92.238281 37.027344 91.367188 38.089844 91.367188 Z M 111.566406 91.367188 " fill-opacity="1" fill-rule="nonzero"/><path fill="#5d9cec" d="M 59.359375 110.703125 L 90.296875 110.703125 C 93.507812 110.703125 96.097656 113.292969 96.097656 116.503906 C 96.097656 119.714844 93.507812 122.304688 90.296875 122.304688 L 59.359375 122.304688 C 56.152344 122.304688 53.558594 119.714844 53.558594 116.503906 C 53.558594 113.292969 56.152344 110.703125 59.359375 110.703125 Z M 59.359375 110.703125 " fill-opacity="1" fill-rule="nonzero"/><path fill="#ccd1d9" d="M 134.769531 29.492188 L 14.886719 29.492188 L 14.886719 25.625 C 14.886719 23.5 16.609375 21.757812 18.753906 21.757812 L 130.902344 21.757812 C 133.050781 21.757812 134.769531 23.5 134.769531 25.625 Z M 134.769531 29.492188 " fill-opacity="1" fill-rule="nonzero"/><path fill="#656d78" d="M 70.960938 52.695312 C 70.960938 54.824219 72.703125 56.5625 74.828125 56.5625 C 70.710938 56.5625 67.367188 59.773438 67.113281 63.8125 C 63.597656 61.378906 61.292969 57.316406 61.292969 52.695312 C 61.292969 45.210938 67.347656 39.160156 74.828125 39.160156 C 82.3125 39.160156 88.363281 45.210938 88.363281 52.695312 C 88.363281 57.316406 86.0625 61.378906 82.542969 63.8125 C 82.292969 59.773438 78.929688 56.5625 74.828125 56.5625 C 76.957031 56.5625 78.695312 54.824219 78.695312 52.695312 C 78.695312 50.570312 76.957031 48.828125 74.828125 48.828125 C 72.703125 48.828125 70.960938 50.570312 70.960938 52.695312 Z M 70.960938 52.695312 " fill-opacity="1" fill-rule="nonzero"/><path fill="#5d9cec" d="M 74.828125 56.5625 C 78.929688 56.5625 82.292969 59.773438 82.542969 63.8125 C 80.359375 65.339844 77.710938 66.230469 74.828125 66.230469 C 71.949219 66.230469 69.300781 65.339844 67.113281 63.8125 C 67.367188 59.773438 70.710938 56.5625 74.828125 56.5625 Z M 74.828125 56.5625 " fill-opacity="1" fill-rule="nonzero"/><path fill="#e6e9ed" d="M 20.746094 27.5625 C 19.675781 27.5625 18.804688 26.695312 18.804688 25.628906 C 18.804688 24.5625 19.660156 23.695312 20.726562 23.695312 L 20.746094 23.695312 C 21.8125 23.695312 22.679688 24.5625 22.679688 25.628906 C 22.679688 26.695312 21.8125 27.5625 20.746094 27.5625 Z M 20.746094 27.5625 " fill-opacity="1" fill-rule="nonzero"/><path fill="#e6e9ed" d="M 26.546875 27.5625 C 25.476562 27.5625 24.601562 26.695312 24.601562 25.628906 C 24.601562 24.5625 25.457031 23.695312 26.523438 23.695312 L 26.546875 23.695312 C 27.613281 23.695312 28.480469 24.5625 28.480469 25.628906 C 28.480469 26.695312 27.613281 27.5625 26.546875 27.5625 Z M 26.546875 27.5625 " fill-opacity="1" fill-rule="nonzero"/><path fill="#e6e9ed" d="M 32.351562 27.5625 C 31.28125 27.5625 30.410156 26.695312 30.410156 25.628906 C 30.410156 24.5625 31.265625 23.695312 32.332031 23.695312 L 32.351562 23.695312 C 33.417969 23.695312 34.285156 24.5625 34.285156 25.628906 C 34.285156 26.695312 33.417969 27.5625 32.351562 27.5625 Z M 32.351562 27.5625 " fill-opacity="1" fill-rule="nonzero"/><path fill="#e6e9ed" d="M 94.164062 81.703125 L 55.492188 81.703125 C 54.425781 81.703125 53.558594 80.835938 53.558594 79.769531 C 53.558594 78.699219 54.425781 77.835938 55.492188 77.835938 L 94.164062 77.835938 C 95.234375 77.835938 96.097656 78.699219 96.097656 79.769531 C 96.097656 80.835938 95.234375 81.703125 94.164062 81.703125 Z M 94.164062 81.703125 " fill-opacity="1" fill-rule="nonzero"/><path fill="#e6e9ed" d="M 57.484375 99.105469 C 56.414062 99.105469 55.542969 98.238281 55.542969 97.171875 C 55.542969 96.101562 56.398438 95.238281 57.464844 95.238281 L 57.484375 95.238281 C 58.550781 95.238281 59.417969 96.101562 59.417969 97.171875 C 59.417969 98.238281 58.550781 99.105469 57.484375 99.105469 Z M 57.484375 99.105469 " fill-opacity="1" fill-rule="nonzero"/><path fill="#e6e9ed" d="M 63.285156 99.105469 C 62.214844 99.105469 61.34375 98.238281 61.34375 97.171875 C 61.34375 96.101562 62.199219 95.238281 63.265625 95.238281 L 63.285156 95.238281 C 64.351562 95.238281 65.21875 96.101562 65.21875 97.171875 C 65.21875 98.238281 64.351562 99.105469 63.285156 99.105469 Z M 63.285156 99.105469 " fill-opacity="1" fill-rule="nonzero"/><path fill="#e6e9ed" d="M 69.085938 99.105469 C 68.015625 99.105469 67.144531 98.238281 67.144531 97.171875 C 67.144531 96.101562 68 95.238281 69.066406 95.238281 L 69.085938 95.238281 C 70.152344 95.238281 71.019531 96.101562 71.019531 97.171875 C 71.019531 98.238281 70.152344 99.105469 69.085938 99.105469 Z M 69.085938 99.105469 " fill-opacity="1" fill-rule="nonzero"/><path fill="#e6e9ed" d="M 74.886719 99.105469 C 73.816406 99.105469 72.945312 98.238281 72.945312 97.171875 C 72.945312 96.101562 73.800781 95.238281 74.867188 95.238281 L 74.886719 95.238281 C 75.953125 95.238281 76.820312 96.101562 76.820312 97.171875 C 76.820312 98.238281 75.953125 99.105469 74.886719 99.105469 Z M 74.886719 99.105469 " fill-opacity="1" fill-rule="nonzero"/><path fill="#e6e9ed" d="M 80.6875 99.105469 C 79.617188 99.105469 78.746094 98.238281 78.746094 97.171875 C 78.746094 96.101562 79.601562 95.238281 80.667969 95.238281 L 80.6875 95.238281 C 81.753906 95.238281 82.621094 96.101562 82.621094 97.171875 C 82.621094 98.238281 81.753906 99.105469 80.6875 99.105469 Z M 80.6875 99.105469 " fill-opacity="1" fill-rule="nonzero"/><path fill="#e6e9ed" d="M 86.488281 99.105469 C 85.417969 99.105469 84.546875 98.238281 84.546875 97.171875 C 84.546875 96.101562 85.402344 95.238281 86.46875 95.238281 L 86.488281 95.238281 C 87.554688 95.238281 88.421875 96.101562 88.421875 97.171875 C 88.421875 98.238281 87.554688 99.105469 86.488281 99.105469 Z M 86.488281 99.105469 " fill-opacity="1" fill-rule="nonzero"/><path fill="#e6e9ed" d="M 92.289062 99.105469 C 91.21875 99.105469 90.347656 98.238281 90.347656 97.171875 C 90.347656 96.101562 91.203125 95.238281 92.269531 95.238281 L 92.289062 95.238281 C 93.355469 95.238281 94.222656 96.101562 94.222656 97.171875 C 94.222656 98.238281 93.355469 99.105469 92.289062 99.105469 Z M 92.289062 99.105469 " fill-opacity="1" fill-rule="nonzero"/><path fill="#4a89dc" d="M 86.429688 118.441406 L 63.226562 118.441406 C 62.160156 118.441406 61.292969 117.578125 61.292969 116.507812 C 61.292969 115.4375 62.160156 114.574219 63.226562 114.574219 L 86.429688 114.574219 C 87.5 114.574219 88.363281 115.4375 88.363281 116.507812 C 88.363281 117.578125 87.5 118.441406 86.429688 118.441406 Z M 86.429688 118.441406 " fill-opacity="1" fill-rule="nonzero"/><path fill="#eac6bb" d="M 79.664062 53.664062 C 79.664062 56.320312 77.488281 58.496094 74.828125 58.496094 C 72.171875 58.496094 69.996094 56.320312 69.996094 53.664062 C 69.996094 51.003906 72.171875 48.828125 74.828125 48.828125 C 77.488281 48.828125 79.664062 51.003906 79.664062 53.664062 Z M 79.664062 53.664062 " fill-opacity="1" fill-rule="nonzero"/><path fill="#e6e9ed" d="M 18.753906 130.058594 C 18.753906 130.316406 18.707031 130.5625 18.609375 130.796875 C 18.511719 131.035156 18.371094 131.246094 18.1875 131.425781 C 18.007812 131.605469 17.796875 131.746094 17.5625 131.84375 C 17.324219 131.941406 17.078125 131.992188 16.820312 131.992188 C 16.566406 131.992188 16.320312 131.941406 16.082031 131.84375 C 15.84375 131.746094 15.636719 131.605469 15.453125 131.425781 C 15.273438 131.246094 15.132812 131.035156 15.035156 130.796875 C 14.9375 130.5625 14.886719 130.316406 14.886719 130.058594 C 14.886719 129.800781 14.9375 129.554688 15.035156 129.320312 C 15.132812 129.082031 15.273438 128.871094 15.453125 128.691406 C 15.636719 128.511719 15.84375 128.371094 16.082031 128.273438 C 16.320312 128.175781 16.566406 128.125 16.820312 128.125 C 17.078125 128.125 17.324219 128.175781 17.5625 128.273438 C 17.796875 128.371094 18.007812 128.511719 18.1875 128.691406 C 18.371094 128.871094 18.511719 129.082031 18.609375 129.320312 C 18.707031 129.554688 18.753906 129.800781 18.753906 130.058594 Z M 18.753906 130.058594 " fill-opacity="1" fill-rule="nonzero"/><path fill="#e6e9ed" d="M 134.769531 130.058594 C 134.769531 130.316406 134.722656 130.5625 134.625 130.796875 C 134.527344 131.035156 134.386719 131.246094 134.203125 131.425781 C 134.023438 131.605469 133.8125 131.746094 133.578125 131.84375 C 133.339844 131.941406 133.09375 131.992188 132.835938 131.992188 C 132.582031 131.992188 132.335938 131.941406 132.097656 131.84375 C 131.859375 131.746094 131.652344 131.605469 131.46875 131.425781 C 131.289062 131.246094 131.148438 131.035156 131.050781 130.796875 C 130.953125 130.5625 130.902344 130.316406 130.902344 130.058594 C 130.902344 129.800781 130.953125 129.554688 131.050781 129.320312 C 131.148438 129.082031 131.289062 128.871094 131.46875 128.691406 C 131.652344 128.511719 131.859375 128.371094 132.097656 128.273438 C 132.335938 128.175781 132.582031 128.125 132.835938 128.125 C 133.09375 128.125 133.339844 128.175781 133.578125 128.273438 C 133.8125 128.371094 134.023438 128.511719 134.203125 128.691406 C 134.386719 128.871094 134.527344 129.082031 134.625 129.320312 C 134.722656 129.554688 134.769531 129.800781 134.769531 130.058594 Z M 134.769531 130.058594 " fill-opacity="1" fill-rule="nonzero"/></svg>