<svg xmlns="http://www.w3.org/2000/svg" xmlns:xlink="http://www.w3.org/1999/xlink" width="200" zoomAndPan="magnify" viewBox="0 0 150 149.999998" height="200" preserveAspectRatio="xMidYMid meet" version="1.0"><defs><clipPath id="id1"><path d="M 15 15 L 135 15 L 135 135 L 15 135 Z M 15 15 " clip-rule="nonzero"/></clipPath><clipPath id="id2"><path d="M 20.605469 20.53125 L 129.355469 20.53125 L 129.355469 129.28125 L 20.605469 129.28125 Z M 20.605469 20.53125 " clip-rule="nonzero"/></clipPath></defs><g clip-path="url(#id1)"><path fill="#e05b49" d="M 134.9375 75.007812 C 134.9375 108.148438 108.105469 135.011719 75.007812 135.011719 C 59.113281 135.011719 43.867188 128.691406 32.628906 117.4375 C 21.390625 106.183594 15.078125 90.921875 15.078125 75.007812 C 15.078125 41.867188 41.90625 15 75.007812 15 C 108.105469 15 134.9375 41.867188 134.9375 75.007812 Z M 134.9375 75.007812 " fill-opacity="1" fill-rule="nonzero"/></g><path fill="#ffffff" d="M 107.96875 40.628906 L 42.046875 40.628906 C 41.285156 40.628906 40.671875 41.246094 40.671875 42.003906 L 40.671875 56.632812 C 40.671875 57.390625 41.285156 58.007812 42.046875 58.007812 L 107.96875 58.007812 C 108.726562 58.007812 109.34375 57.390625 109.34375 56.632812 L 109.34375 42.003906 C 109.34375 41.246094 108.726562 40.628906 107.96875 40.628906 Z M 107.96875 40.628906 " fill-opacity="1" fill-rule="nonzero"/><path fill="#ffffff" d="M 107.96875 68.476562 L 42.046875 68.476562 C 41.285156 68.476562 40.671875 69.09375 40.671875 69.851562 L 40.671875 84.480469 C 40.671875 85.238281 41.285156 85.855469 42.046875 85.855469 L 107.96875 85.855469 C 108.726562 85.855469 109.34375 85.242188 109.34375 84.480469 L 109.34375 69.851562 C 109.34375 69.09375 108.726562 68.476562 107.96875 68.476562 Z M 107.96875 68.476562 " fill-opacity="1" fill-rule="nonzero"/><path fill="#64798a" d="M 40.671875 109.386719 L 109.34375 109.386719 L 109.34375 98.65625 L 40.671875 98.65625 Z M 40.671875 109.386719 " fill-opacity="1" fill-rule="nonzero"/><path fill="#ffffff" d="M 68.210938 101.664062 L 67.535156 101.664062 L 67.535156 105.695312 L 70.046875 105.695312 L 70.046875 105.046875 L 68.210938 105.046875 Z M 68.210938 101.664062 " fill-opacity="1" fill-rule="nonzero"/><path fill="#ffffff" d="M 72.054688 102.582031 C 71.597656 102.582031 71.210938 102.734375 70.90625 103.039062 C 70.597656 103.34375 70.445312 103.71875 70.445312 104.160156 C 70.445312 104.601562 70.597656 104.976562 70.90625 105.28125 C 71.210938 105.585938 71.597656 105.738281 72.054688 105.738281 C 72.515625 105.738281 72.902344 105.585938 73.207031 105.28125 C 73.515625 104.976562 73.667969 104.601562 73.667969 104.160156 C 73.667969 103.71875 73.515625 103.34375 73.207031 103.039062 C 72.902344 102.734375 72.515625 102.582031 72.054688 102.582031 Z M 72.75 104.882812 C 72.566406 105.070312 72.335938 105.164062 72.054688 105.164062 C 71.777344 105.164062 71.546875 105.070312 71.363281 104.882812 C 71.179688 104.695312 71.089844 104.457031 71.089844 104.160156 C 71.089844 103.863281 71.179688 103.625 71.363281 103.4375 C 71.546875 103.25 71.777344 103.160156 72.054688 103.160156 C 72.335938 103.160156 72.566406 103.25 72.75 103.4375 C 72.933594 103.625 73.023438 103.863281 73.023438 104.160156 C 73.023438 104.457031 72.933594 104.695312 72.75 104.882812 Z M 72.75 104.882812 " fill-opacity="1" fill-rule="nonzero"/><path fill="#ffffff" d="M 76.585938 103.082031 C 76.332031 102.746094 76.003906 102.582031 75.601562 102.582031 C 75.195312 102.582031 74.863281 102.722656 74.601562 103.007812 C 74.339844 103.292969 74.210938 103.644531 74.210938 104.066406 C 74.210938 104.492188 74.339844 104.84375 74.601562 105.128906 C 74.863281 105.414062 75.195312 105.554688 75.605469 105.554688 C 75.828125 105.554688 76.027344 105.5 76.207031 105.394531 C 76.382812 105.285156 76.519531 105.140625 76.617188 104.960938 L 76.617188 105.355469 C 76.617188 105.699219 76.527344 105.949219 76.347656 106.109375 C 76.171875 106.265625 75.925781 106.34375 75.625 106.34375 C 75.320312 106.34375 75.015625 106.230469 74.71875 106.003906 L 74.414062 106.492188 C 74.785156 106.78125 75.199219 106.925781 75.660156 106.925781 C 76.121094 106.925781 76.5 106.792969 76.792969 106.519531 C 77.085938 106.25 77.230469 105.84375 77.230469 105.300781 L 77.230469 102.625 L 76.585938 102.625 Z M 76.34375 104.703125 C 76.179688 104.878906 75.964844 104.96875 75.707031 104.96875 C 75.441406 104.96875 75.234375 104.875 75.078125 104.691406 C 74.921875 104.511719 74.84375 104.292969 74.84375 104.042969 C 74.84375 103.792969 74.921875 103.570312 75.078125 103.382812 C 75.234375 103.195312 75.441406 103.101562 75.703125 103.101562 C 75.960938 103.101562 76.175781 103.191406 76.339844 103.375 C 76.503906 103.554688 76.585938 103.777344 76.585938 104.042969 C 76.585938 104.304688 76.507812 104.527344 76.34375 104.703125 Z M 76.34375 104.703125 " fill-opacity="1" fill-rule="nonzero"/><path fill="#ffffff" d="M 78.164062 105.6875 L 78.808594 105.6875 L 78.808594 102.621094 L 78.164062 102.621094 Z M 78.164062 105.6875 " fill-opacity="1" fill-rule="nonzero"/><path fill="#ffffff" d="M 78.492188 101.320312 C 78.382812 101.320312 78.285156 101.359375 78.203125 101.441406 C 78.125 101.523438 78.085938 101.617188 78.085938 101.730469 C 78.085938 101.839844 78.125 101.9375 78.203125 102.015625 C 78.285156 102.097656 78.382812 102.136719 78.492188 102.136719 C 78.601562 102.136719 78.703125 102.097656 78.78125 102.015625 C 78.859375 101.9375 78.902344 101.839844 78.902344 101.730469 C 78.902344 101.617188 78.859375 101.523438 78.78125 101.441406 C 78.703125 101.359375 78.601562 101.320312 78.492188 101.320312 Z M 78.492188 101.320312 " fill-opacity="1" fill-rule="nonzero"/><path fill="#ffffff" d="M 82.242188 102.898438 C 82.03125 102.6875 81.75 102.582031 81.40625 102.582031 C 81.195312 102.582031 80.996094 102.636719 80.816406 102.742188 C 80.632812 102.851562 80.492188 103 80.386719 103.1875 L 80.386719 102.625 L 79.742188 102.625 L 79.742188 105.695312 L 80.386719 105.695312 L 80.386719 104.035156 C 80.386719 103.75 80.46875 103.535156 80.632812 103.382812 C 80.800781 103.238281 80.992188 103.164062 81.214844 103.164062 C 81.683594 103.164062 81.917969 103.445312 81.917969 104.011719 L 81.917969 105.695312 L 82.5625 105.695312 L 82.5625 103.816406 C 82.5625 103.414062 82.457031 103.109375 82.242188 102.898438 Z M 82.242188 102.898438 " fill-opacity="1" fill-rule="nonzero"/><path fill="#d5d6db" d="M 45.773438 50.566406 L 86.433594 50.566406 L 86.433594 48.066406 L 45.773438 48.066406 Z M 45.773438 50.566406 " fill-opacity="1" fill-rule="nonzero"/><path fill="#d5d6db" d="M 46.390625 79.578125 L 47.640625 79.578125 L 47.640625 74.753906 L 46.390625 74.753906 Z M 46.390625 79.578125 " fill-opacity="1" fill-rule="nonzero"/><path fill="#d5d6db" d="M 49.40625 76.503906 L 45.234375 78.914062 L 44.609375 77.832031 L 48.78125 75.417969 Z M 49.40625 76.503906 " fill-opacity="1" fill-rule="nonzero"/><path fill="#d5d6db" d="M 49.40625 77.828125 L 48.78125 78.910156 L 44.609375 76.5 L 45.234375 75.417969 Z M 49.40625 77.828125 " fill-opacity="1" fill-rule="nonzero"/><path fill="#d5d6db" d="M 55.082031 79.578125 L 56.328125 79.578125 L 56.328125 74.753906 L 55.082031 74.753906 Z M 55.082031 79.578125 " fill-opacity="1" fill-rule="nonzero"/><path fill="#d5d6db" d="M 58.109375 76.507812 L 53.9375 78.917969 L 53.3125 77.832031 L 57.484375 75.421875 Z M 58.109375 76.507812 " fill-opacity="1" fill-rule="nonzero"/><path fill="#d5d6db" d="M 58.101562 77.835938 L 57.476562 78.917969 L 53.308594 76.507812 L 53.929688 75.421875 Z M 58.101562 77.835938 " fill-opacity="1" fill-rule="nonzero"/><path fill="#d5d6db" d="M 63.78125 79.578125 L 65.03125 79.578125 L 65.03125 74.753906 L 63.78125 74.753906 Z M 63.78125 79.578125 " fill-opacity="1" fill-rule="nonzero"/><path fill="#d5d6db" d="M 66.808594 76.503906 L 62.632812 78.914062 L 62.011719 77.828125 L 66.183594 75.417969 Z M 66.808594 76.503906 " fill-opacity="1" fill-rule="nonzero"/><path fill="#d5d6db" d="M 66.808594 77.832031 L 66.183594 78.914062 L 62.011719 76.503906 L 62.636719 75.417969 Z M 66.808594 77.832031 " fill-opacity="1" fill-rule="nonzero"/><path fill="#d5d6db" d="M 72.480469 79.578125 L 73.730469 79.578125 L 73.730469 74.753906 L 72.480469 74.753906 Z M 72.480469 79.578125 " fill-opacity="1" fill-rule="nonzero"/><path fill="#d5d6db" d="M 75.503906 76.5 L 71.332031 78.910156 L 70.707031 77.828125 L 74.878906 75.417969 Z M 75.503906 76.5 " fill-opacity="1" fill-rule="nonzero"/><path fill="#d5d6db" d="M 75.5 77.828125 L 74.875 78.910156 L 70.703125 76.5 L 71.328125 75.417969 Z M 75.5 77.828125 " fill-opacity="1" fill-rule="nonzero"/><path fill="#d5d6db" d="M 81.179688 79.578125 L 82.425781 79.578125 L 82.425781 74.753906 L 81.179688 74.753906 Z M 81.179688 79.578125 " fill-opacity="1" fill-rule="nonzero"/><path fill="#d5d6db" d="M 84.195312 76.503906 L 80.023438 78.914062 L 79.398438 77.832031 L 83.570312 75.421875 Z M 84.195312 76.503906 " fill-opacity="1" fill-rule="nonzero"/><path fill="#d5d6db" d="M 84.195312 77.832031 L 83.570312 78.914062 L 79.398438 76.503906 L 80.023438 75.417969 Z M 84.195312 77.832031 " fill-opacity="1" fill-rule="nonzero"/><g clip-path="url(#id2)"><path fill="#f20f10" d="M 129.355469 116.496094 L 116.574219 129.28125 L 20.605469 33.3125 L 33.390625 20.53125 L 129.355469 116.496094 " fill-opacity="1" fill-rule="nonzero"/><path fill="#f20f10" d="M 33.390625 129.28125 L 20.605469 116.496094 L 116.574219 20.53125 L 129.355469 33.3125 L 33.390625 129.28125 " fill-opacity="1" fill-rule="nonzero"/></g></svg>